<?xml version="1.0" encoding="UTF-8" standalone="no"?>
<!-- Created with Inkscape (http://www.inkscape.org/) -->

<svg
   width="1000"
   height="1000"
   viewBox="0 0 264.58324 264.58333"
   version="1.1"
   id="svg1"
   inkscape:version="1.3.2 (091e20ef0f, 2023-11-25)"
   sodipodi:docname="GrainOS-logo.svg"
   inkscape:export-filename="GrainOS-logo.png"
   inkscape:export-xdpi="96"
   inkscape:export-ydpi="96"
   xmlns:inkscape="http://www.inkscape.org/namespaces/inkscape"
   xmlns:sodipodi="http://sodipodi.sourceforge.net/DTD/sodipodi-0.dtd"
   xmlns="http://www.w3.org/2000/svg"
   xmlns:svg="http://www.w3.org/2000/svg">
  <sodipodi:namedview
     id="namedview1"
     pagecolor="#ffffff"
     bordercolor="#000000"
     borderopacity="0.3254902"
     inkscape:showpageshadow="2"
     inkscape:pageopacity="0.0"
     inkscape:pagecheckerboard="0"
     inkscape:deskcolor="#2b2b2b"
     inkscape:document-units="mm"
     inkscape:zoom="0.72248176"
     inkscape:cx="361.94685"
     inkscape:cy="361.25479"
     inkscape:window-width="929"
     inkscape:window-height="1000"
     inkscape:window-x="0"
     inkscape:window-y="0"
     inkscape:window-maximized="1"
     inkscape:current-layer="layer2"
     inkscape:export-bgcolor="#ffffff00" />
  <defs
     id="defs1" />
  <g
     inkscape:groupmode="layer"
     id="layer3"
     inkscape:label="bg"
     style="display:none;fill:#ffa714;fill-opacity:1">
    <rect
       style="fill:#000000;fill-opacity:1;stroke-width:0.267204"
       id="rect1"
       width="316.95822"
       height="316.95822"
       x="-31.074333"
       y="-23.823656" />
  </g>
  <g
     inkscape:label="grain parts"
     inkscape:groupmode="layer"
     id="layer1"
     style="display:inline;fill:#ffa714;fill-opacity:1"
     inkscape:highlight-color="#ffb207">
    <path
       style="fill:#ca7f00;fill-opacity:1;stroke-width:0.360488"
       d="m 231.9412,159.23303 c -28.05968,-28.05968 -89.43393,0.35277 -89.43393,0.35277 0,0 48.11537,25.90361 81.90676,10.02199 -21.99982,32.72258 7.83722,81.00182 7.83722,81.00182 0,0 24.74709,-66.31945 -0.31003,-91.37658 z"
       id="path2"
       sodipodi:nodetypes="scccss" />
    <path
       style="fill:#ffb333;fill-opacity:1;stroke-width:0.218822"
       d="m 202.04649,192.67775 c -13.05259,-20.245 -43.25248,-9.04618 -43.25248,-9.04618 0,0 14.1701,19.21238 37.45669,14.23719 -15.40336,16.99416 -3.61669,38.26143 -3.61669,38.26143 0,0 21.06836,-25.37377 9.41245,-43.45244 z"
       id="use3"
       sodipodi:nodetypes="scccss" />
    <path
       style="fill:#ffb333;fill-opacity:1;stroke-width:0.168111"
       d="m 175.52001,211.8811 c -8.39267,-16.49292 -32.34875,-10.2953 -32.34875,-10.2953 0,0 7.95567,16.16915 27.51343,13.80944 -13.10084,11.78358 -5.75556,28.95884 -5.75556,28.95884 0,0 18.08552,-17.74488 10.59094,-32.47295 z"
       id="use4"
       sodipodi:nodetypes="scccss" />
    <path
       style="fill:#ffb333;fill-opacity:1;stroke-width:0.13846"
       d="m 149.48756,227.2528 c -2.43847,-15.04545 -22.78614,-16.2041 -22.78614,-16.2041 0,0 4.39227,15.24431 18.11043,17.74538 -13.23689,5.95058 -11.79143,21.268 -11.79143,21.268 0,0 18.64468,-9.3738 16.46717,-22.80927 z"
       id="use5"
       sodipodi:nodetypes="scccss" />
    <path
       style="display:inline;fill:#ffb333;fill-opacity:1;stroke-width:0.121105"
       d="m 123.84848,229.43356 c 0.0458,-13.33125 -17.34665,-17.23882 -17.34665,-17.23882 0,0 0.9293,13.74453 13.0917,17.90063 -12.27253,3.24319 -13.21416,16.6672 -13.21416,16.6672 0,0 17.42813,-5.42431 17.46908,-17.32902 z"
       id="use3-5"
       sodipodi:nodetypes="scccss" />
    <path
       style="display:inline;fill:#ffb333;fill-opacity:1;stroke-width:0.109817"
       d="m 99.937455,228.26698 c 4.517855,-11.21279 -8.817916,-20.3478 -8.817916,-20.3478 0,0 -2.844321,11.34618 5.011826,19.47555 -11.42619,-1.392 -16.729744,9.59794 -16.729744,9.59794 0,0 16.501333,1.28724 20.535806,-8.72572 z"
       id="use3-5-1"
       sodipodi:nodetypes="scccss" />
    <path
       style="fill:#ffb333;fill-opacity:1;stroke-width:0.271264"
       d="m 81.703653,219.33659 c -14.935265,-0.61322 -17.751417,-22.5985 -17.751417,-22.5985 0,0 19.459526,3.87133 17.751417,22.5985 z"
       id="path4"
       sodipodi:nodetypes="ccc" />
  </g>
  <g
     inkscape:groupmode="layer"
     id="layer2"
     inkscape:label="motion parts"
     inkscape:highlight-color="#a05a2c">
    <path
       style="display:inline;fill:#a45928;fill-opacity:1;stroke-width:0.360488"
       d="M 70.917389,228.54668 C 25.284114,209.81515 0.21021374,168.73461 19.258232,108.55447 46.086453,23.793628 139.98623,15.057915 139.98623,15.057915 c 0,0 -67.379168,20.153329 -90.321376,98.245475 -8.466235,28.81791 -10.022105,85.59598 21.252535,115.24329 z"
       id="path3"
       sodipodi:nodetypes="cscsc" />
    <path
       style="display:inline;fill:#79421e;fill-opacity:1;stroke-width:0.289822"
       d="M 80.856549,76.180959 C 104.25456,40.170029 147.48638,14.198305 187.63944,22.540766 c 45.85086,9.526274 44.39398,55.268609 44.39398,55.268609 0,0 -16.56182,-26.97298 -60.24927,-34.577864 -32.28816,-5.620555 -60.72918,3.706114 -90.927601,32.949448 z"
       id="path5"
       sodipodi:nodetypes="cscsc" />
  </g>
  <g
     inkscape:label="Layer 1"
     inkscape:groupmode="layer"
     id="g3"
     style="display:none"
     inkscape:highlight-color="#ee3b3b">
    <g
       id="g7"
       transform="matrix(1.3567551,0,0,1.3567551,-29.177852,-60.833319)">
      <rect
         style="display:inline;fill:#ff0000;stroke-width:0.537007"
         id="rect5"
         width="0.62853193"
         height="127.7225"
         x="-192.6575"
         y="101.48031"
         transform="scale(-1,1)" />
      <rect
         style="display:inline;fill:#ff0000;stroke-width:0.325943"
         id="rect5-2"
         width="0.45114577"
         height="65.554329"
         x="162.24506"
         y="-192.58522"
         transform="rotate(90)" />
      <rect
         style="display:inline;fill:#ff0000;stroke-width:0.553551"
         id="rect6"
         width="0.45114577"
         height="189.07481"
         x="229.05489"
         y="-214.42992"
         transform="rotate(90)" />
    </g>
  </g>
</svg>
